<mxfile host="app.diagrams.net" modified="2024-05-29T15:51:32.341Z" agent="Mozilla/5.0 (Windows NT 10.0; Win64; x64) AppleWebKit/537.36 (KHTML, like Gecko) Chrome/125.0.0.0 Safari/537.36" etag="VHQkq4WhYyM1GOrWuotT" version="24.4.9" type="device">
  <diagram name="Page-1" id="-0315pXaETJzbtG_iZ8G">
    <mxGraphModel dx="1744" dy="1036" grid="1" gridSize="10" guides="1" tooltips="1" connect="1" arrows="1" fold="1" page="1" pageScale="1" pageWidth="1169" pageHeight="827" math="0" shadow="0">
      <root>
        <mxCell id="0" />
        <mxCell id="1" parent="0" />
        <mxCell id="hPZNeYlknb2ak6IFQxPp-1" value="" style="shape=image;verticalLabelPosition=bottom;labelBackgroundColor=default;verticalAlign=top;aspect=fixed;imageAspect=0;image=data:image/png,iVBORw0KGgoAAAANSUhEUgAAApQAAAKpCAYAAAACK7xPAAAAAXNSR0IArs4c6QAAAARnQU1BAACxjwv8YQUAAAAJcEhZcwAADsMAAA7DAcdvqGQAAG9ySURBVHhe7d0NnI11/v/xd2q0qIl0MxSiGyVb5J+JREUtKW1FdF+2REXKTaV2oxsldINyU0slxepmo9Iv7K6Uu1ZsyUY3YlqmGGrSuJnwP5/rXGfmmuPMzJm5zjlzZub1fLic67rOdc6c2+t6n+/ddcDOnTv3CQAAACilKu4lAAAAUCoESgAAAPhCoAQAAIAvBEoAAAD4QqAEAACALwRKAAAA+EKgBAAAgC8ESgAAAPhCoAQAAIAvBEoAAAD4QqAEAACALwRKAAAA+EKgBAAAgC9lGihnrf1VnV9erfGf/qSNP+101wIAAKA8OWDnzp373PmEmrv6R/WZ+V/t3bVTp7S/0Fl3VvWfdcVxB6pJnUOdZQAAACS/MgmUb6zM1L3vfat9e/dq386danzu+e41QScdmK3+p1XVcbWru2sAAACQrBJa5b1v3z49/9EG3fvut4GFQJoNLNtl+LT2t1S9tv6gwAIAAACSXcIC5d5AeBw5b52e+FdGIDQGUqNNe/cFLvbmLXqnD7ckX6D8xz/+oUsuuUSffvqpu0aaNWuW/vSnP+mnn35y11Qc9pzsuT377LPumsivQUViz6tLly5at26duyYxfv75Zw0cOFDDhw/Xzp2Vqz2x/dB85ZVXdPXVV2v9+vXuWgBeidpHhPb7dmyrKMpqv17ZxCRQ5uzKdeci2/3bXt379zV6fsnGgqnReBbDp0Sy0HTSSSdFnEJfrF27djmX5YV9iSI9H5v+8pe/lGqnlGyvgYWRL7/8Uo888oj+8Ic/5D2/li1bau7cue5WyW/Pnj3OVN7t3r3beS9uvPFGbd682V27v5ycHN17773OtH37dud2FdmmTZv03HPPqVu3bnmf0T/+8Y96/PHH9c033zif42QUaR9i360777xTy5YtS9rHHa1QeAp/juFTMoSrirKPiMSCngW+ol7n0GfRLpGcfAXK3N/2aOSCTUp/eaPe+k/kg8f2nbm69dVVevPzzc7Op8C0d5/aNqoZSAWBDSNNCXb66adrwoQJTmmJd/p//+//Odd36tRJs2fP1hlnnOEslxdDhw7d7zldddVVSklJcbeIXqTX4Ndff9X48eP1f//3f+6axLDP0DvvvOM8l4yMDF177bV64YUXdN999+miiy7Sb7/95m6ZPHJzczVz5ky9/PLL7pqgww8/XE899ZSGDBmi3/3ud+7a8qdq1apq1aqV/vOf/+jrr7921+7vf//7n7ONfbcOPfRQ9ezZU6+++qoaNGjgblEx2GfQntell16qf/7znzr77LOdH69WynTaaafpzTff1EsvvZT0P1ZD+5ApU6bolltucX4s3HrrrXr33XfdLcqn6tWrq1+/fnn7Rdv/23Ggb9++eetsCh0DylJF2Ueg4vIVKO/5IFMvfbnLCYZ/XvKrHvvHRv0aCJAhW7fv1pV/XamF636yo/9+05ALGujFW1pGusqZEi01NdUJSvYL3DvVrVvX3aJ8Ovnkk/d7TqeccooOPPBAdwt/LCT9+9//TvhB0Up9bGffp08f5yB93XXXqW3btrrpppucA6CF32RjJQyff/65fvnlF3dNxfP73/9ep556qlOCVViJyvLly3XIIYforLPOctdUPBYmJ0+erKefflr33HOPpk2bpv79++uCCy5Q165d9dBDD+n9999PirBSnNA+xAKxBUr74da5c2enRMmqYssr+wFkATK0X7T9vx0H7IdNaJ1N5f0YACSCr0B50AGB/yz4udO0tbt1y+xMZWTl6LsfflKH0R9qzabswFF0b35KdKcZN56mnm2Os7txbhtxAoqQmZmpFStWOAfkgw6iE1eyqF27ts4880x98sknysrKctfmszC9aNEi50B+1FFHuWsrns8++0yvv/66/vznP+vyyy93wks4K3Wyqr7yVuJkJXsWtOw7uHXrVnctgMrMV6B8pMPR+uNxKYHwF0h/7vTZlt905d+36OLJ/9XWrJ+0d+cO7f0tNxAq7Xqped1D9cng1mrRoKZ7LwVuXmBKNiVp2LtmzRqn6jX0C9fmbV0ysqpja4fofbzWtuvHH390t8gX/hpYyaBtv3DhQqfBuLVxSVTjZ6sqPf74452qVXsOxbH2UhMnTsxra3nDDTfogw8+iKpqPNrbWltAq/q/+eab1bx5c2e6/fbbndfDSnOsmnP69Ol65plnnPsJtQmy9qzWrtXbAcqE3hur5jr33HOd7a3tnT0We0xedv/WHszeN2uWEGqvZ4/Vgnc0r1EsWMm3fSa++OILpzQ23LfffuuUUJ533nl5ISv02MOfU1HfIysZf+yxxzRo0CCn2UWIPU9rr9i9e3dt3LjRXRtcP3bs2P22jwf7HLz33ntq1qyZ8zwPOMB+fUenJO95Wdq7d69TmlejRg1nOdQOLlIbt/D31y5DHT+s+cMDDzzgvL/2fO09ivf7Uxr2mIvbB4T2j//973+dpgz2fELt1UOvgYVwa/Ji92PP2fYF9nxtm9B622/YZ91qYUIi7SNK+jpa+LfnYJ8new72t+xvlqY9fbKI5n2JJPR+2I9e295uZ7e3/eZrr71Wrl+TsuIrUFZNOUiPdDxGvZv+TvusENKdsnfu0b7UNP3u2Ea2d9S+XRYqd6t/23qa2esM1aoe1nbPjnORpnLKqvqsfdHBBx/stHmxyar+bF2kA2xZs5Kk3r17OwfBJ554wtnBWXWkHdCsw0BROnbsuF+7owcffDAhJU8NGzbUZZdd5oQK23mGDlaR2E7Dno8F37vuust5nK1bt3Z2wFYVWVTYiva21tHEHouVSFmQsFBjU5MmTZxSOStJtSpQq/K88sornfuxyZ5HJHa/1kbt+uuvd5oThNqxWXs8a3tnjym8BHDHjh16/vnntXr1at19991O21YLeLZtUW0aY82es71G9l2w4Bdiz8nC5IknnujsvItS3PfI2gC3aNHCCZjeHz/WyccCmYVo7w8bW//VV185twmFoHixz6I9BqtCte9StErznpeF0EHYSqKtRLq07HNqnbis3e24ceOc74V9R6xKPZk6oJRk/2HzFtKs2txGxbCmDaESaPt+WjtUu3z44YedQGO3t3X2vC0U2ntu19kPMvthH02TgmheRwtI1vzCvle2vw99rux7ZfPJ9HpHqyTvSyT2nC1Y2mfZmkrZj4A2bdo4x0F7D6MpbEA+X4Ey5I5z6mho60Ptm1RgOrB6TVWv31gHVq2ml6//ve5oHwiYEdibHmlKNPtQ2q87O9CFJvvCFxVUwtkvQNs52BfaPtTW5sgm20nYB9U6kXgPsInQo0ePAs/JplApQujxWimK7cTsl63tlKxUrVevXsXuzKyEMLzdUSIO2Maqua03sZWM2o7EfnXbTjT8/bKdhnWEsZ2D7VAtBNvjtOdn75GVJHlLAryiva19Xm0763hhO/Q77rjDeR1Dr6WVTFo7LAuVdgCuU6eOcz821apVy/1rBX333XeaNGmSU9o5YsQI572x7W3HZ0HVOka8/fbbBb4r1pb1yCOP1IABA5y/3b59ew0ePNi57qOPPnIuE8E+D/Y5sM/ZDz/84K4NBi2r7rbnccQRR7hr9xft98iCqbFSzxAbesg+txbcreNP6PWxg7W9pk2bNnWW48lKhrKzs1WvXj13TXRK854ngoVjCyIff/yxU0Jm37ujjz7aKdXx0xbbflzY99faY9rztO+VhWn7jHg/N2WppPsP+4Fjn8t27dqpSpWCh1j7fto+025r92Hvs3VIGzNmjPPeWu95+95efPHFzj7EtrcOh8WJ9nU855xznPfP+xxsuC7bNyRDW9hQLVekyY5jXn726yH2+li4t+AeOvZZJy0rHbZwaZ97RC8mgdJU2Zmt3VmBD67t57xTlYN0cN3jA0f/wtsI2b4x0pRokXp524fL2gtFy6o6rFTv/PPPL9Cuz+7DwoSVEiW6OidUyuGdQqVi9litrZeFMe/ztCo6e7z2miQzqzK95pprnM4NFj7s/bOqzg8//DDwGQp+iOxXrO0w7T3xhhh7jhYurGTRqqEiifa2FpTsB4ntxK3UJhaWLl3qlM5Zj/XwNqKNGjVyfgQsWbLECS4hjRs3VocOHQpsf8wxxzgHOCuhS1QQsdfHdu5W5WylJyG2g7bvgIXDoqqBo/0eWaix0lALjnaAMatWrXI+t/Y62N+z523Wrl3rBLyShjw/IrWbtAO690DpbSJSmvc8EWwfYqMoWLC1klLbL1pJfM2a+U2XSsM60dnzCrHnbD++7HuVLFWOpdl/WMe0SJ9v+37a5zd0nYVx29bY59W7Dz7hhBOcNrbRBOtoXkcrJbUfWd72uradPSb7AZcMgTK8d713ss+gl5/9eshxxx233z7Gbm8/Wo899tiE1upUBDEJlJP+tU6D3lqr3G2Z2r05wzlohU+95mzVuA8L+bVgx7hIU4JF6uVtB6ZIB4XC2IfcShnsIOE9aNhkJUX2K3Tbtm3u1okRqZd3qFTMfsFZuLQSs3D26zpWPcHjzXa8t912m1NdaFUe9kt//vz5znWh0iJrfxT+ntivWitR+P77751tw0V7WwuUVu1qO+dIB5LSsM+S7fAilWDa37Ad3pYtWwqUyFpTA3stvKxq2A789tlLZE98+1yFqr2tOYUFPpu3A5334BdJtN8jOwBb8wILrfY+2ftlpTXp6enOSAb2+baSSSvNtCpE631u3/N4s++OHaTsb4ezz03oIGkHUK/SvOeJYO1+LZBb8xgLu6NGjSrwQ6G0rFYj/Ptiz92+V4l+joUp6f7D9gGFNQOI9P2sVq1agcsQe11ssr9fnGhfRwuX9h20ZjHWJMZKJ62JUrII713vnew45uVnvx5itUaRmmfZfsWaqkT6/qJwvgLlnr379NCsNXr8/74J3NOBOiDld8r9OUtVt32vqvbh3hvYyDM992mOur/ynbb8UvCgFsibwSmwTd58GQTKWLEDplVPeX9dhaZEtS8sCTvweX+hlWdW3WudLkJDmniH57ESlUjviU1WalCUaG9bkh8fFZ01e7BgZwcw2zFbWLJAYqUp1qGqONF+j6w0wqoF7W9YqLcSSQuzVjJrP5QsCNnnwA4w9gMx/MAbDxYaLPxZaWn4oO1W5Rk6SNoBtDw57LDDnGpaO7hbKEmGUq1EiXYfEAqCycZKwa2pgj0P+zFmP/ZsGCsbdq0887NftwKT8GYJXt4SYxTPV6Ac9Lcv9OKiDXnp74BAqGxx/FF69/Yz9Fb3o1SzauBL5U2Igenzzb+p7QsZWrbO8+vTbh68i/z50HI5YwdR+9VkBxPvr6vQlKj2hdGyx2LVkpF6dNuBMNkHXI7EdgLWS9J+wVqpmFUh2q9/K6mL9J7YVNg4c9HeNrSdBYhYsVIOK6WLVKJtpf7269s+Z+ElHsnEPu/GOtHYZKEymmYUJfkeWSizUiF77e1v1K9f3/lhYaHVPgdWMmntKu3gEWpzGW/2ty04z5s3TytXrnTXFq88vOcWKq3tpDUzWLBggfO4vMLbrYUed3nlZ/+RLOw9mDNnjlM6b51VrJTfxkK1x55sBRzRisX7UliNoVWV249U25cger4C5YH2I8x2Ju7Uq+1xerVPax1zxKFqeNQheuOqNDU67EDvJnnTDW9t0QsfBYf0iHS9TeWRHdhsh2u9+8pDDzGrerQ2NeGP14YEsXVWuhQt7xAtiWDt7KzRuj1WL2s7Yz18LVRYiaG1r7F2SvZ8rLqwJKK9re2UbZBuawheXM94Y/dVXFi30GSlbXaf4Z8l64RiHYBsm5L0Ik40KyW0Hbu1dbImCNZ2MppSuZJ8j+z5W4mZBRz7vNprYgcZY+HV2kFZ+1ZrkxapKjlerL2a/X3rfWudk8KDVyTl5T230mPrITx16tS8869bwLfAYiXC3sduP1YXL17sLpU/fvYfycIKByw82T7RW6BhnzXrmFIexeJ9sTbW1m7Zewyxz66Fb/vRFl7NjqL5CpSPdztV/TscH0h/0tirfq97O5+kg1Py77JOreqaemVdtUw7KJBQAhuFTaMXZevGF79wbh9xKofsAGodM6w6yM6O8a9//cs5yNnl6NGjnQ9qooV6aHona2dmJXj2C8zaqVkvOTvwWS9Om2zeglFxVQbGAqk9bwsMdv5sG4cxmp6JflnvPGsDZB0F7PW2jjh2gLN2aRZgbDBpK620UGmnZ7RfojZcxltvveW8BnaQe/HFF53nXlgHgGhva00G7H23Hba15bQeyradvZa2jXV8MvarOi0tzQkGFhrs9SqsJ6EFILsvG/rH+1my+7b1VtVrY6YlY/VaiL1+FijtedqO3+ajaRZQku+RPX8L89Yxy15nbymkleYZa1tr7SdDQTMRLBBb1byFY+uhap8fG4XAPhM24Lm1/bLvmX12QtVu5eU9t8dsQ3YZa19pgcVKV62n7Msvv+y8R/Ydsfdk2LBhzvMqr/zsP5KF7Xfs82/7HBtFwB677a9tyJ3y0k4+XCzeFwuMdtwYOXKkczv7btprYp9h6+yZ7CXPycZfCWWVA9TvguP13+Ed1LnZ/p06TK1DDtazl9XRHxoGDiIRQuPiDTv3K5kMTeWR7eit/Z71NrYPs42NZb0jrWenFc9b6UKihXpoeifbyVvJge1MrF2NDXVjbWwsnNkX0Q7KNmSSPebiWKC0oS+slM6GyLGDZSLaZNrB1Q60FtCsGsfadr3xxhvOr1ZbtvASYu3W7HnZ62/jbNprYK+LjUtoPWdth1uYaG9rB1QLCBZkbWgX287GoLPPgT1GY58PCxfWi9Cus+FCCmPb2vAh9hyNVVPZfVrIsCFFLHCUhzY+1mnGDmYWKmw+GiX9HllwtL9h9+/tYGYlkvZ37T2yz0WiWSnHo48+6owHaI/bDlT2HbPvm5UY2fBOFjJDpbbl6T23x2zhdsaMGc6B3PYl9ljtvbIfD1YtbgPs2w88a3pQnvnZfyQL+1zZe2Oh0t6bv/3tb84+3obKKa/8vi9WAHD//fc731MbKsi+Y1bQYgOl2+tl30dE74DAzjoh0W1X7m8aMXejXl3l+cWwd4/27vxVdZtE3tn868ry+csJAAAkL+u0aT/8rTTd7/BXCPJVQlkSB6ccpAc6Hqvbz6wRCJKBFRZjnctQcWTBy/PrJHcVAgAAAIISFiiNtRPqe94xeuDc1ECY3Kt9e/cEpsClZcjQkEGBy5Orb1ePE/MbyQIAACB5JTRQhlx7Vpqe+ENN5/ze+3J3OYWSNp2Z+pOeOmu7JlxSUyelFT9OHQAAAMpemQRK0+WMND1+xYnq0KyeOqf9pFf/sEujLjpCZxxHWwYAAIDyJGGdcgAAAFAxlVkJJQAAACoGAiUAAAB8IVACAADAFwIlAAAAfCFQAgAAwBcCJQAAAHwhUAIAAMAXAiUAAAB8IVACAADAFwIlAAAAfCFQAgAAwBcCJQAAAHwhUAIAAMCXA/73v//tc+cBAACAEjtg586dBMpCZGVlqXbt2u4SAABAxWbZp/kDq92l6BEoi0CgBAAAlYlln7p167pL0aMNJQAAAHwhUAIAAMAXAiUAAAB8IVACAADAFwIlAAAAfCFQAgAAwBcCJQAAAHxhHMoiMA4lkBxWry75ILsAyqcmTZq4cygLpR2HkkBZBAIlkBwsUHYcm+UuJdYPkzu4cwDibcWKFQTKMkagjAMCJZAcQoEy0eHu6J7z9H7f2mrevLm7BkA8ESjLXmkDJW0oAQAA4AuBEgAAAL4QKAEAAOALgRIAAFRMuzO1evkKrcibVitzt3sdYopACQAAKqYN8/To4IEamDcN0Jxv3OsQUwRKABXK9u//p+173QUAlcq2ZWPUd/BMrd4eXN7+vw3KrNZNYz+Yr/kfjFW3arv1xbeZwSv3bNfqGcP1ykp3Y/hSNsMG7c3UgmdGavraHHdF9Kqf1EOD7myntAREYYYNApJDVMMG/fwfTZtxm6b8/IsOOayvHvzjLWp+lHtdKTFsEJBYfoYN2r5ygvoNmKn1tlDtRHW7/zG1XXeH+q7rrbfvP0eHaLsWPnqphh4yXK933qq/jhyjOV9b/XcDdRs9Rr2bHWK3rPTK0bBBOVoxuXRh0uSsna6RzyxQJiUQALx2fKPVgTBptv88VoOmXqnR87+ktLIS2f7h4+p4QU+99AWN5CqbUJjc1Kqfxj4zUJ2OWa+ZD1ytAa9m6sQm9QNh0hyi+k1OlGYNUddbx+jrxv004a1pGtpRmjmgn8Ys2+ZshdJJeAll1vvD9cDbGdJp12nENU3dtcVZpan3TA38ny8RJZWUUALJIaoSysw3df/UoVqqg3VIYL+wfe8uZ7Wf0sqSllCueq6Ner/qLoQcdpxanHWxrr+9h1oc7q4rIxEfn6vVfbM0snMZP0Cfts67X1eP2KSrnp6gG06t6q5FeVLaEsr1b/VVz3F1NPTtITrH0uOe7frq3VEaOGW7eo8bFQiYwe30v/ka/sxC1b/6Tl3brJazancgjN4UCKNbWw3Rq4+0V3Bt5VXaEsqEB8rM94Zp2OxMqUUvjb852mqkFZrUZ1Lgf6lxi+bKWL5CVr4Z71BZ1oFy2/uBX1Ejl7pL+bo9M1+9PVl89aT26quxmt8rwpdw1QS1v1MaO7+3nGs3z9GQHqMCB91u+esK2KY593XVwnava3jH4r9WoccY/phCnMc2Q0ofVMj9hT2+wp5z4FkX8njD5D2//UV6jKHHFy70eCM/nvDHsloT2veVinoNIr4/wdd61DJ3MaTlQL3+WKdKv1PzKlmgPEcDrnlcJ37+oAZ+Nk9O66gqJ6tTs4d063knO2EzWqULlO10x1OX60Rb8fN6ffqfxZr9/mJtVSs9OG2kLvBZDe/Hfo/P4+Bjf6+mdUoSwrZr1YzRGrf7Ck24LtrCAaBopa7y3rNeb9/ZUxNOHB64TFfUn+Qdgf33bX01c3O6hkwZrvZHuusrsXJU5e1P9f/XSw/f2lzVA/OVo/rbwst8zQ9Nz3TTzDvba4K3uLZUZqrvpNXufGlt05IFS5XeMl0zp80JLBVu6ciRmrPZXShW2HMOTK8P2qC+7dtryPvRVUlYePTefv70gdoQeN3a3xfhcVqA824bmAqG34KPZ2z3wGvXfkIgRvpgQbp9MLh7/+78+a9roBZqSdSvFSKqcqhO+MOT+vsNz6pbtYOlvV9qzqdX6toXnteKH91t4qaOmp7ZQi1s6nC5bhkwUrNevletdizWY7N8f3FjwPP4PFPJwqTZre8+matVwVYGqIh2bNf2Pe58tHZs1dYd7nwiHdhAl/a/SXVmjdHkldE2edit1TNGaeaGqmo/aAhh0qdyFyhN9WaVLVR6NO0dCDSBOLjIT5xJ18BB3aQZff0F081LtHBZN1179zlKX1ZECOo+UANbLtWoJ4sOnUWp1XG4E6aXjuxausd8ZCcNnz9W3ZaNUlefQbrJZQMDr+AGrS9t6HNKZTdo4PTw4GpqqdNjw9WJHVtsHHWObr3tH5pwWgenDVWZta2s01rtzgocvr78TlvdVUBy26R3hnRUlyHvaFO0oXLHWr00oKuuHrUgcZ/zPbu1bcNqLX1/psZM/UjZ1TI18/WF+ccapyf3EHW9uL3aX9xVQ6au0La857NVX/3buvCcIK2bozmLVwf269u1u6QhGo5yFyhzt2crOztbvzXqoUFXNlZKYF1eqAxugmIt1fpj3WB6Z+lL2rYtX6il3duqSSCsXdt9qRYuLyQurpPOujsQwgJhbmSUJYwR+Q7TTdQ7EEo140N/pYu+bNOcaTOVPmgQoTFR8korX9A1hya6tDJklxWGBIJlbbdzgFmlcW3aaNC7EQ69n41TmzaD9I7n8W19d1Bg3TitChwg1777pHpffn5guY06XnO/pn8Ru2FPtv9zmM5vc76eXFKwlGf3F8/r2sD6Yf/c7j6WLnp8SeCKV3s7j8OmcZ8Ft3Xs+E5zn7tf13YOXmePc9y875yXIY/neW795CXdf01HZ9vzL++tJ+dtcjfy2Lpc0x++M+8+bbth3u0ivG6OPVu1/NVhutO9/zZtOurau4Zp+qfhr/1WvTMwcP1zgV+t29fqndG91eUCd/sh07WqUo0uU0cXP/yMLv/+cV0TTah0wmRvvaQbNGZgOyWqNe62uUPV9aa+GjLyFa3cnKa21w3U8D+l5zUZynz3PvWdlKmmXfupX9emynxxoAbM+Mq9Nk2d7hurIXeeKq2eowkP9FXPHpdq6Fwfx6lItn2l+f+Yr68i3u1uZS6fr/nLMwt+N0Lstu/P0eoYP6R4KHeBctW0e3TPPcFp2N/WKNddn7N2TeD3VGWwTesDAS29fh13ufSa9BqrbpqpV0oV8lZrhrWdbB1s69KktZUezig8qAVC56BB6UVvE4U69dP9BcKjGyg98Jw/LHXJbCAQPjlKgSdTukDolOqm65wWtJBMuKNa6qZe/9CEMy5X/cBiXmnlki3B6+No92dvBMJLVV3etkX0bbsi2q5/Teynx784TjfcN1LPjLhb52qBxt06UG9+727i0yHn9dV9Z0tvjn1Na0MhYs93emfMS9rY4UENOO8QHXLGDXrmqQfV4+TAdefdEZh/xpkubhDcXDsCYfnmazXsY+niu4LXDbhgu94Zeq16Tl3rbhSyW9+9Pkg3viqd2/9R536vSlurN4deoyc/8Rxif16gYd3v1Itbz9ANQ+0+R+ruDodq+XdZ7gaFCDyW52/uqjunrNfhnQcEH+uIO3SWFmtcv66BQB/hyPHzvzSu7+Na1egGPTj8GY0ccK704Tj1HvBmJTnOuA5poTsmRhEqPWFywugbdFI1d33CdNOoD97W5OeGql/3TkpvGPrZtl5L31+tE/s8qKE3XqpLbxyqB/ucqPWvfpR3DKl6TBO179JbQ56YrLetFstdHzuZevvPvTX80eHqfbc7pJHH9o/G6KbBwzV88E0a81H4L5b1mnl34LYjR6nvHa8oFIOTVbms8q7Mtr0/UqOsmjmKDjPFC5bYlax9o2vVh4FY1k1tQ23xm7Z1wmlRQa1Wx0Ea2NJf281ax1oU8OHIBk6YKMCqwdu3V/u8aUjY62FtJkPXddUoDdSg0r7+PwR2cIFH0IDSybJhpZXth2pC+xuCJShWWpnxP+eq2NmkVZ8s13Kb5r2pcQ/3Vpfb3lGDAZN1x5l+ex6/oyW6WxMGX65W1vbx7Mt17/C71VSr9No/w4NaYaart1NK553GeUbROFwX9L9brX58Xs+/HyzB2/r+s3ry2wv04F3tnBLWqnWaOu0uj6sZWHDnneXDbOvdWjVlmKbv7qFnXnhUPToEr7vgxmc0ZXArfTfxNS0ocNxcrjfXt9PEUTfoAud+LtAtox/V5dV26813Fwc7VQVsXfKO5u4IBJzBoe1a6eLbRmrWTUV1CAo+lpe+b6F7X56sB6++IPhYz75Ydzw1SxOurqvFj43T3J/dzUPeXSLdNUH3XtbK2b7VZffqkf6Bv/PFa/og2Y/qsWah8oUJhYfKHd8Fwn9ZhskY2hMcGQKlE/tAaYOWPzVAffr0iTg5PbxLrLl6jR+v8ZGmWyv6gMPeMNNeIzVI86Pp7Rwtpxq55O0bVy+aKVl1t7ts4bRtsdXRtdTJqr79tt2Mtf065YS3YSzYKef1dgsDATQ8dPpjPcHzA20sOl0hor2/6Ov/u1tXzn/JbeN1qNqkhcYTiZUFGnfXnbrTpqFPavq3x+m+6e/r0cuO81k6aVqox2VNC95Pg6ZqVScQY3+KtneM9fIOlhrmTxfrOPdaR52LdXffVlr89Ita/P0CjX16uS4YMkDtnMBYjN3L9cGrm3RS94vVIixc1DmzXeAZzNXn37orXJcHtq1zoLtgqv0+EPoCl1t/UehZHXJ4ncDz/lwLPgkrI/TeLpz7WOpcc4su3q9Sp6qadu2hVoH364MlYVXfZ/TQFacVfLeOO72V6gR+LPxSGTshVWsaOVQ6YbKnxv1S1mFypgZeeKl63jZUY2bM0dJ1oZ8hDdT28nStHz9MQ198W2+/OFTDxn+lBle3yTt27V4zR1OeGaret3ZVpwsHBu4p1tJ06cMTNOT+IZrwZLfAIyrokDb9NOWJIRryxBT1a5PfICaogbo9GbjtoIEaO+7a/UZmSDYxDpT+Bi1HJPlh5nWnyrgUpYnFcDqZlKR94+Y5esWG2gkEQ28IcobfmfFK0Y/PaW8Z+PqXsu3mtu83BAJgg8COvZQ2r9cGpavB0e5yKVgHISeEv1WKZ+BUue/foadJr1BgjUeVCxw/LtTE585Xb3cooarVbtCjN3ysoeccEbw+Znpowkcf6aPA9I9pD+ri3e9o2J+n51cf+3Kijtvvw3+EattRav2mKDtCROrlfZynbWdQnc636+5Gb+r+m4ZpwdnBqu6o/JTlVAuvffrasFLQwNTtcS0PXLc+w/tIW+m4Y93ZPIeotg2v9Ol3ClVoVz3jKj3Y5Tgtf6Kbzr98kMa9u0qbIjY683AfS6uTC8TlfEcd5xzgl2dsDC6HBLbf72U+rLYTutdviu5VrnDcUHnVj08GQ+WOTXrHwqTu0OQyDJO1Lhiqt6dP1thHeqtTy6r6atIoDXng73nVw7U6DNWEQc2U9f4ETXg/SyfcOVZjuoei2XYtfX2UXpkb+AWf1lY9BwX27VNe19ALYtwkqdaJan9+e50Y8W6rKq1F4BjaIi3yD067bcdOalIOWknFNFBmvf+0Ji0PhEkbtHzEiIhT//YMFF5aeUHGR2/piPLaN0YXVp3OOGGldvlhqIjOOa5Q282SV327wxS1O6vUYzQ6j73lOTrLZ5Wz05Zz3fqSvw9OlXvxrxFiyEol5w9Vz5du18wdVqV1qNqc9jf97bYBSo/zmJBVG1yge4feorpfjdNDr0ZbJZ0kDkzVoTWraveO3apd+5DIB7sitLttZFgpaP50wxlRhlOvA+uo3eDJen/mM7rjbOmDp3urW+eeev6z4lIlYiYQKm95bowTKrtd0E1PWpgcermOK7OSyYADq+qQwH61SatOurTJIfo6sKrBBWd4SgKrqkHHfho7fY7mTB+rIV2a6JC8Uu1DlN65m9J2pKpZt8DnqWO6mtSvpapFlXqjUDENlLl73S4yKdWUmpoacTqsuvXLRmk5YSysNNE6xBTWUWX/qunIgu0bLazO2K/RcEHBUBf5PoPV3ksXLCkmaIV6W/fVhEXuqij4bj+6eY5GWkeia/wPGr5pQ+A1aNjAvZ+iqvtX68MZyuu8ZNt2j0HnJETpx2WaMul89f70TW0ILOaVSv6hZAOc+3LiVbr3xuP03cTn9U6EHh3LN4WVjgVszSj6W5gIm959TI992k4PjrhFB894XJM+jTK4VT/UKe3cVLVOWClo/lTyMS/zVa3TQpfb2J5vTdYdp1tnkElaVVjpb83aTknj4i+/Cy6H+/E7Z3/X7vhCSjCxPydUTtOEpyZoWlmHSa8dSzXhobe1u343DezeJOofQFWb9VS/Lps0c/RkrS6L8TMrkETtUhEzoUDiKU1s2j3Y2SVs0G47y0vfGekaeFlxcdK47RuXzdTM8DO3eDm9lL0BqSAn3BY1JmVIaAigGdG0WLEzyrRX15HSwOmlaz9qr0X7HtY7+/WIZ7MpiUivq9NsIBCQCw68bo+7r2a2HKjunr8ZLGkOto3dr62kUyUP3/JKJW/WtF8SWyq5v6pqes3turzaYj359FxPtfQhqnuytPuTtfrOG4j2fKd/zVrsLpTEPu3bV9wU5XYbZwce63K1GHCHOrTuof5XStMfm6h/54RtZ3e3fqOyvOtqnKFW50lrZ8zef/sIk/OIIqwP/LNr8pd/88zbVONEtT2nRSBIbNEWz98pcH8pZ6jtFVW1adrzmr0xf5vgtEufz5yuxdU6qF3zGvnrg3eQv+yZHBHWJ9sUd9Ws2URT1UmWMKndWjppqN7ekaZud/ZUE/dxbVv5ioYOHq6Z3vGevg7se3tcqr4vhsajrKr0PwWODxtm6tHAOsq7S49AWQ7llSb2CLVDtMGw7QwrBXsrdx1ZX2P362BSBLfquyir3wqetjGvd3c4J9xG174wWPUdScGOSPlnlIn+udjZhPJvH3gtFpzjdLyJePrH/Xp5B6YC1fEFH0/E1zXw2g2fPlAa2dVzP101quFYzY9wGkWnzWTo7D2e+7bQu7T7WN+ht3L7Vm+/2bFsSyXDVWulGwe2kj5+TGP/GTq4Hadzu7VS1S+eVO+BL2mu9Qr/+B2N69tb3510sbtN4QqECHdddDLze6F7py82BQ+mezbpnSdHaPHpd+muDtYXvqpa3HyXLvtphka8sNxzwD1cxzWsGnhOL+vFdwO3/zjwHL6w9Yfogj73qFVg+/7d+mvcu4vdv7FY77z6pAYP84bq6G19f7AuvXec3vnYfbzzXtKISctV9Y8XqlWhNeiBx37rM+p+1GKNuOFPGvbq3OBt7XW++1L1eU3qPuq+6DoblSMFPhuBqeKrqubtL1WDwGd72dylysz+SnOe7K2rB0zRwuXzNWFR/s/09Z/P1+rN27V66kB17TowEDa/0vzxUzQ/cB8N6lvHL5RWTM/lHc15ukt3Lu8irJykPhPtLN/WE7xX4P/YKetzeQMIKtm5vEOsVPKvGnhB6YNk6c7lbZ1y7tB+vwn2fKc3b7tWT357uUbOulutnFKU3fru3XF6/K/vaNWPu1X1qFa64YH7dMNBr6rNbet175sjdbFbomqDiXd5rIHGL7w97L636p1Bl2qE7tHbIy/eb0Bpb6BYNb6tbguEqIjS79HfR3ZW9ht9dP0z0l1Tx+syT5fUrR8MVrdHvtPlT7+i289wD7s71mrGsEGatGibclNP1V1jArdpFLxKPy7XjEkv6NUPv9C2nYHl1AY68fSzdPnVV6nzqe6j/OxZtb1jve55/Ql1Dis5Dj7W7nruw+Dz3f3VW3p8/Jta/O/1+jWwXKP+Gbqw68264ZKmOjzU5q2w+9uxSYv/9qxemLVYX23OlX5XS6e2vVrX33iZWh3rjRBb9e6gP2pEo+f0YZ+wd/DHdzW46wjp3r/riYsSNWx30Q444AB3Ljol3b4slPpc3gG7V01Q7zuDYz1WPaGT+g36kw5/t6uGbBioaaM7KU3bNP+Brhp+5HC93nmr/vroKM1xsmZVpQ+aouEd02yh0ivtubwJlEUgUALJIapAuetLzXzpT5r48y9OqeSDV/qv3i5poIyXokqZKkcJFEqjqACZrOHST6A021e+ojFrzlC/rsHON5nvDtQ1T56gUR/0DuSDFZpw4UB9ffc0jeocCI97tmnF1JGac2w/DelAmAwpbaCkyhtAxXDwyerW62P9revfy6itZHwUFhhtffh1oXVMlXfyirQupLD15d0hza7VkO75PbnTGp2qqs44le3V3hlnsqpObeSGxwNrqfmNwwmTMUKgBFChHN6wUdm1lYyxSAd9b0gIzTMxFTZ5PyfhIq2rcI7vpNFPjNKovGm0Oh3vXoeYIlACQBIKP9h7Q0Gk+eKmvXv3MlWQKdL7G2nyfj7C50PClyucqmlq0qK5mudNTZRGz5u4IFACQJIp7KAfCgSRJm/QCA8g3uuYyv9U1PvrnY80hT5HXuHLQGkQKAEgiRR2sPdehqZQePBehs8zVfwp0nvvvQxNoc+P9zIkfBkoKQIlACSJwg7y3svwKVKIiHbas2cPU5JPkd63wqZIn4fwKfQ58l6GhC8DJcGwQUVg2CAgOYSGDSoLRQ5VFGPeA3qkg3/4tHHjRv3000/KzXVPewu4UlJSVLNmTWf4FxsiKHwy4ZfGO18W/A4bBP/KzTiUWe8P1wNvZ0inXacR18TgdCCfTdU90+z8dQRKoKKyQFkZWEgMCZ/3TubAAw9Uamqqjj76aP3ud79z1gEhgWO7fvjhB2VnZzslnSYUJkNTSGHzZYVAWbbKTaDU3kwteGakpq/NcVfEQnU1vX6Ibm8V2/BHoASQKOEBMnQZafrxxx+dA3+9evWc7YDCZGRkOJ+Zo446Ki9Ihk8mdGm886h8ShsoE9+Gskqa2t05SD1Oqu6u8K/eJYNiHiYBoCyFh0jvZKVORx4Z7Un6UZnZ58Q+L5E+R6EJiIXEl1CWRBzbR0aDEkoAiRI6sHsvvZO3s8VXX32lZs2aOdsBxVm5cqVOPPFEValSxSl9DF16JxN+icqp/JRQAgAKsKDo5V0OBUrvBJRUUZ8j77wJXwaiQaAEgCQRfpAPLXsvvdsA0Yrm8+SdB0qKQAkASSz84M9BH6UR/vnhc4RYI1ACQJLyHvy9E1BSkT5DfJYQSwRKAEgihR30w9cDJRH++fFeetcDpRXTQJlSJSU4k7vDGabA97Sdsz8AqNiiOZB7t+HAj9Io6WeIz1nltmvXrhJPMR02KF6Dlje/9WH1aha7cSujxbBBAOIt/EDvnbxDBdkUOrfz+vXrGTYIUbNhgxo0aOAMF2RnWLLL4oYQMt55VB6lHTYotoHSxDRUll2YNARKAPFmgTHEGya9QdI7WajcsGFDqQLlZ599prvuustdytejRw/dcsst7lLiFPZ47HSSjz32mBOCyovnn39emzdv1t133510p8K0QFm/fv0CYdI7ESjhlTyBsgIhUAKIt5IEylAJpZ9A+fjjjxcIa9a86L777tMxxxyT8DAU6fGUxvvvv69PP/20TMNceQiUFh4jhUoCJbxKGyjplAMAScAbLBMpNTVVt956q1atWqUffvjBXYuSshLeIUOGJF2YLKmy+hyi/CNQAkA5EM8D/WGHHabDDz/cXUJFRmBEvBAoASAJJfLA//PPPzt/r1atWs6yVYPffvvtTlWy186dOzV8+HCnejfEtrF1P/74o3Ob9u3bO5N3m9KyzkdXX331fvdlf9PWL1682LkcOXKk5s+fr86dOzvLdrsQ2zb0mGwKf04lefzh92W3s9fE2Pbe5ZDw29jfsNfXy25rU+j5hrYNf6zxQMBErBAoAaASsxBj7RgvueQSp/q7NCzMDRs2zGkLafOTJ0/WP//5T9+ByNpV3nvvvc59hUKiXb788svO+latWunVV1/VoEGDnAD27rvvOsuh9pgW0mbPnq233nor73HZbcMfVzSP3+a992V/6+STT3av3V8ofHtvY5O1fe3du3eB0GumT5+uadOmOX/btnvqqaecoGztTIHygEAJAJWItZPs2bNnXilYKMR07NjR3aLkrFf24MGD8wKpBbrzzjvP6SgTXmIXLvzx2OQt6TvttNOc+7LHaes++OADZ9nWF8UCm4VCax/qfVzXX3+9E/K8pYTRPP6MjAwnDIa2sbaSl19+eaFtJteuXav//e9/Tkj1BvXrrrtOTZs2dZ6Hl4XTO+64I+/+TjrpJOe1WLp0qbMMJDsCJQAkuVhWS1p48paC2eW//vUv99rSsYBk9+tVr149J1Dt3r3bXROZ9/GEpvDOLd27d3fua+rUqU6PZVsuzn//+1/ncVkw87Leq9u2bXOmkGgevy1bKWK0pa4WBL0BNMSe1xlnnOE8D2+oDd/WtjvyyCOdnuPFhfKSopob8UCgBIBKykr5rLrYqoHDq2CTiQUtK2m0QOctcSyKlShaOLV2ld7Sz0jjXkbDSnBD1dDhpajhbL0FQaAyIVACQCXWunVrpzOOtwq2atWqzriUycJK8iZOnKgzzzzTuQzv1BKJlSha8LO2jt7ST5u87SxLwgK43d7aRFrp5YABAyI+llDpIlCZECiT1Jz7Qr+oh2hOhB+6qydFvn7b+0Pc9YXddpvnvvefJqxyNzOb52iIu37I+/nVQ/lWa4Lntu0nrXbXe6yakH99+BS2ff5zmhC45wiivq+wxxWa7pvjXg8gxFv6F94BxEr5vKy9o41XmWgzZsxwAq5VhdulLRfHqrbjNbamvWbW5tIG/vZWnXtZoA2v1jZWemltMyNVhwPlGYEySZ3VLt2dW6qFy8N3WKv1YWh/2vIcnZX3Q3iblizwNuCOdNuizbyzsPAYwaoPNdOddcz4MHIQLMyMvk7IK9kjLIYTOvsWfFwAihTqAPLOO+84gSfUzs8bMm29dYxJ9ODn9vetc80111zjBDC7tGVv+I0UHu05WdvIJ554okCos6r9BQsWuEvRs1JJ7/1YG03vUEvhzj33XCf82lmIvLezdqBWuhlNO1CgPCFQ+rQ9e7s7F71tm4uPULVanKO8SLlhkzvn8gS59HZnKW93tnmJFi6zmXSlt3TWaOmCJYUHtpYD9XqoGuiZbu7KYm7jsXqR+yhaBv6eMzNTHxZReNHtmVCV01jl/bVlC7WkFE2N8u/LnXo1CazdpjnT8l4ZDZzu3cbzNwEUYAHy4osvdr4roQ461mbQzvFtbQ4tbFpP7CuuuMKZj6VIvbxtssBok/1965kdqqIO9cC2oY5C7T5D4dHuJzQOpT0nK9G0ksDLLrss734tYDZv3ty5XUls2bKlwP1YT/HwHtxehf19a1s5evRoSidR4XAu7yIUdy7v3SsnqNuAZeo0eox6NzvEXVu0zAWjNOSh9eo0cbS6nVDVXRuZVQH3dUoiu2ns/N6yyGSsWrvrSCuJtNA0XJ3cEsq89RYUr1mvrndauCq4jRO67uuqURY8bbvHOrmB1KqJ3ZK90Hqr8u4xSs5fGvS6hnf0/hLP377bM6+rwTT3PruPdcOdy0oMnccRDIG9mzqznueW//gKe755CrmvfJ7nVth9AEkm1OPWe2mTnbM7dBk6h3doKu25vFE5ec/lHZpC5/S2anvv+bxN+CUqF87lXQaqNuutiXen6e0B/TRhZfEllcEwuVpN/nJ/sWHSNGkdKlPzlvx5qrULq+5u2EC1jm7glhpGV+297f1XIpd6FiavlDRdDY6upQYNnYUoq709Vfbdr/WE3Viaqb6FtcUEyhkO7IglPk+IBwKlT2mdh2tKFKEyP0wO18B2ae7aYjRtm1dNO3ORG43yqrXDgt+qGW7JnNStdRPpyLN0TnHV3stGqatbDRMs8QzoPjasJDIST9WyG2ojh9+CrH1msNonVLIZqqouufz7Ck7BzkS11OnugW6QNhYq7frIHZsAAEBsEChjwAmVgwoPlduWjSl5mHQ0UdtQu+11651QuG35QqcK2qp0r/UEv7z2jIH1bZ2q4Fr5HXuibKdo1dpRBbxIoTZS+C2GEwoj9Qz348hOGj7/dQ10w3TQUo3qUYLORgAAoEQIlDGS1jFyqLQwOeC+laUIk0F5JX9uKNy0IVSS2NbTPtBThZxXKucpdSys2tvtlPP6ILdyfGTXqEJXfqgN3sZb6ugopNrb25Em9Detp3dpgl54p5yC7SlrqdNjYX8nYOnIke4ckPyolkQi8DlDrBAoY8gJlffV1xw3VG5fOcEJk80eG12qMOnIK/mzUDgnLzg61doh4cP3RFBUz+1aHQfllehZ6Cq6ejh8aKJIiu7tbYrsxR5DtQLvSX6oLO5xA8mLAz9igc8R4oVAGWNpHYZqohMqL9WlA5Y5YbJfy2K7uBQhv9p76YKF2uDMhaq1g/Kru8OHyvGU0C0bpRmFhrxa6nRNqMJ6qUa9VUQ1tKe62+nR7flb3qF5Zk4renzJ1W8Fe4+b9Pp13Dm/rJd3eEccbwDOL60Ekg0HeiQDPocoLQJlHFiofHHiKI2a6DdMBuVXey8NhrDCqrsL9PoO8pYEFtm2sWlvjQ2115zRt+AZczy81d0FSkkdnjafEdptejvSBIcHMgXbggblV9uHpvBq8fBOOfkDpIffNjSMUED3a90ZoHziYA8/+PwgngiUcVLrhOZqfoL/MOnwdHgx3iBX7HA/RzZQfXe2uCF9mlyW30N65p2RhtxZrRl57TILlpKG1KmfX71c7HBFThvOWI4V6Rm+KIyfHuVAWbIQEJpCy0BJeT8/3s8TECsMbF6E4gY2BwC/QgOam9Cg5t7JO6C5TTbIuZ0JhoHNES0b2NzOMBQazNw7eQNmeND0zqPyYGBzACiHojlohx/kDzroIOfc2kBx7HNin5eSBsVotgG8CJQAkETsQB6aQsuhy9BUo0YN55zQQHHsc2KfF+/nx3gvveuB0iJQAkCSinTQt6lWrVrKyclRRkYGJZWIyD4X9vmwz4l9XsI/QyZ0CcQCbSiLQBtKAIlgbSXDL72TtZ0MXXqnbdu2OYHht99+c24HhFg1d/Xq1Z0wGandZKT2kyb8EpVPadtQEiiLQKAEkAgWFkNCITI07w2TocvwdeHzNoVu771ExREpAIYmb1j0BsjwMBm69N4+xDuPyoVAGQcESgCJEikEeqfwEBkpVNrkvW1oHhVTpDAYmrepsAAZuvROodt6L1E5ESjjgEAJIFG8wS8UCAubCguTNoVu77003nmUb97AFykMeqeiQmT4FOKdR+VDoIwDAiWARIkU/uyysClSmAxNoduicggFQG849E7FhcnQbUO886h8CJRxQKAEkEjeEBgeDqOdQtt7L1FxhQdCu4x28m4f4p1H5USgjAMCJYBE8gbASOEw0hR+XUhh86gYCguBoYAYWudd9k6h67yXxjuPyolAGQcESgCJFB78Qsvey9DkXQ7NR7osSjTboGxFE/AKC4h2GT7vXfZehoQvo/IhUMYBgRJAooWHvEhBMdI676XxzqNi84bAwgKjXRZ2XUj4MionAmUcECgBlIXwMBhNcIy0DpWHNwxGCozh67zXmfBlVF4EyjggUAIoK+GhsLDAGG2QLOo6lC9FhT/vddHMm6LuD5VPhQmUuRvXaMGSBfr082/0Q1a2cnLdKw5OVWpafbU8s4PObtNYaQe76+OIQAmgLEUKgUUFSEIjigqLkYIjYRLhyn2gzN28TNOfe0WLMkMJsigpSmvRRT2u7KDGqe6qOCBQAihrhYXE4sImKqeShEbCJCIpv4Fyb7ZWzXhKkz7MVChKptSop8atW+rMeqk6LO1kHfHbBn2zJVtZX3ykj1euU9au0IZpanfzXepxWnxSJYESQDIoKigSIlGYogIjYRKFKZ+Bcm+mFjwzUtPX5jiLKWmtde0tPdSyboqzHFmuslbO0tTX5mlNti2nqN6lQzSkY5pzbSwRKAEkm5IGSAJnxVXSUEiIRDTKYaDM0YoX/qxJyy1MVlfjrv11e/t6gXgYpdwsLXphuKZ+Fgyj9S55UEMuim2oJFACSFYERUSLIImSKG2grOJeJlz2P8flhcmm1w9R/5KESZNSW637PKxeLao7ixnvTtacjc4sAFR4FhK8ExDCZwNloWwC5a4Vmv7OOme2epteur1VaUsBq6t5z0HqZAWTezM069UFcmrBAaCSCQ8RTJV3AspCmQTKzPmztMIpnGytm65qHFxZWlXS1OX6DnIi6TdzNTfDWQsAAIAEKYNAmaGPF2U6c/UuulRNY/EIGl6gcxvYTJYWfbjGWQUAAIDESHygzFylVVk201Bnnxmr4X5S1a5dU2cuZ9UqBSvTAQAAkAiJD5QZGXLKJ2ser/oxHD4ypWEjOX28f/pGG2hICQAAkDAJD5SZmzcFZ2ofEWz3GCtpaarjzOxQTnAkIQAAACRAGbShdNVMVRzPmggAAIAEKbtA+WOmnKaUsbJrR96pGwEAAJA4CQ+UaXWDFdPK2qItwbnY2LhJG5yZI3RYLWcGAAAACZD4Espj6qmeXeas0qoYdsfO/O+q4KDmaY3U6GBnFQAAABIg8YHyyOZq7nTHztaihaucVf7lj21Z+/dNg729AQAAkBBl0IYyTWe3bejM5Sx9Twt+cmZ9yVk8S/OcBpn1dO75TvknAAAAEqRMOuWktrtUrWsEZvau0/Tn5ihzb3B9qeQs0pRXgiWd1dtcoQ41nVkAAAAkSJkESlVprOv+1FrVbT5jlkZOXqbs0oTKnFWa+vhUrbLb1miuay/zeV5wAAAAlFjZBEpzSg9de2aKM5uzfIoeeOINrSnBGW5yNy/SpGHPatHmwEKVeupydy81dxIqAAAAEumAnTt37nPnEypn5ST9eeIKFTipTZVUNW7fQz06N1daYT21d2Vq2Zsv642P1gVLNQNhssPd/XXF8bFPk1lZWapdO6bn8wEAAEhaln3q1q3rLkWvbALlxjka/ugsZVggrNdF/btKc/46q0AJZUpqmo5tVF9HHpyqeqcepp+/+FbfrF+j7zNz8gYwT0lrp1539VDTOJ1yh0AJAAAqk/ITKHNWaNJfJmnFr4H5Gs3V6yG3qnpvttb8c7qmz16hzF3OloVKqdlQrf/4J12RXlvBSvP4IFACAIDKpHwEytwMzRo5XHMyAvPW7vH+Ieq032POVU7Gt1r5+Qqt+TFbm9d/o6yD6+vktOpKrXemzmjWWA1rxzNG5iNQAgCAyiT5A+XeTM15fJhmuWGy072D1KVeYoJhaREoAQBAZVLaQJmgXt45WjF5ZDBMqrqa39I/6cMkAAAAopOQQJn53tOatDzYn7veJYPUqxnj+wAAAFQUcQ+UNjzQyNlO0aSqt+il/hdxpm0AAICKJK6BMueLqRr+fHCsSQuTD9/cPHh2HAAAAFQY8QuUG+fo6ecWKcsda3JQT8IkAABARRSfQGljTT7pDlxuY03276S0hLTWBAAAQKLFPubZ8EBPuwOXp3CObQAAgIouxoHSMzyQDVx+b6SBywEAAFCRxDRQ5mbM05wVThccZ6xJwiQAAEDFF/sz5WQt0hufNdIV55X/4YE4Uw4AAKhMkudMObVbV4gwCQAAgOjQ9xoAAAC+ECgBAADgC4ESAAAAvhAoAQAA4AuBEgAAAL4QKAEAAOALgRIAAAC+ECgBAADgC4ESAAAAvhAoAQAA4AuBEgAAAL4QKAEAAOALgRIAAAC+ECgBAADgC4ESAAAAvhAoAQAA4AuBEgAAAL4QKAEAAOALgRIAAAC+ECgBAADgC4ESAAAAvhAoAQAA4AuBEgAAAL4QKAEAAOALgRIAAAC+ECgBAADgC4ESAAAAvhAoAQAA4AuBEgAAAL4QKAEAAOALgRIAAAC+ECgBAADgC4ESAAAAvhAoAQAA4AuBEgAAAL4csHPnzn3ufNxkr52n6W/O1aqMbOXulVJq1FPT8zvpiguaq3aKu1ESysrKUu3atd0lAACAis2yT926dd2l6MU5UOZoxYvDNGlptrscJrW5rhvcS62TNLMRKAEAQGVS2kAZ1yrvzPeezguTqQ3b6Yo+g/XIkP667oLGSrW/nL1CU596Q+v2OpsAAACgHIpfoNy1TG+8m+HM1j4vECQH91CH0xqqdr3Gan15f424v4vq2V/PmqeZCwopwQQAAEDSi1+gXPOFVlnJY5Wm6nJpQ+3XVLJuJ3VJr+7Mrlv7pXMJAACA8id+gXJvbvDyqEaqf3BwNtwRR6QGZzKzlBmcAwAAQDkTv0AZkr1FWwppI7kjJyc4U/swFdf1JTcnW9nZwSnHzaoAAAAoe/ELlKc0U1O795xFei9SG8mcZZq7OLi+3ilN968SD8lapqkP91O/AffonnuC04B+/TTshXla5+ZRAAAAlJ34BcqDW6pDa7eN5N+G6en31ijbKVnMVU7GMk15fIpWWCCs0VJd2rhV3+E2ztHwv0zRoo3hRZK5ylz+hp74y6TgfQAAAKDMxHccyr2ZmvP4MM0KdvbeX5V66jBwkK5oGKF8cu8aTR38tBb9Gpiv0Vhd/tRTHU5JVUpujjI+naGJLy9TllWlH99DIwa2UyGR1BfGoQQAAJVJUo5DqSpp6nTvCPW/pKlqF+iYk6LU49vppoeGRA6TAbmfzAuGySpNdd1D/dXJwqRdkVJd9dJv0pBbmssp//xmruYWFlgBAAAQd/HvlFMlVY0vul2PPP2guqQFVzW/dYxGDOyhlkUU/n379bfBmdPOlFtzXkD1Zl3Uwbm/LK36nD7iAAAAZSX+gbKUcnYEG0fWrlvfudxfmmq7ARUAAABlJ2kDZc2awVaRWV+sUsTz6OxdpTVrg7PVqkUowgQAAEBCJG2gbHhK02AbyfVzNH1leFfuXGW8O0uLnNX1dEbzeHTJAQAAQDSSNlDq1Ct0bQuLlDlaMfFeDXt5nlaty1LGf+dp+hMPaPh7wZ449S7pqQ41nVkAAACUgeQNlKqu5j0HqccpVvqYq8zFb+hZC5Jj3tCCdcFK8NT0Xup/EQ0pAQAAylISB8qAKmlq12+ERtzbQ3m12inVlXZ8S11xV2D9je7QQQAAACgzyR0oXakpOfp6e6q+UVN9ccQNmr2liW555jPV77NQDW//SP/v3qW6+pnPNW5Ohr79cYd7KwAAACRCcgfKvblaNvcVtXtki6bvvVhf6jR9t+ln/fjzbu3ZGzzBj13a8kdf/qQnZn2ncx/8t/pNWUOwBAAASJD4nnqxgEzNGTZMszJtYPPx6nVqttYtnav3PlqmDT+7mxTwm778qa5W6kzt0wHuuugdWOUADb/qBF3VpvRtLDn1IgAAqExKe+rFMgmUjc/rIi2bpTV2asVCWPW2lUj6NbjLcbqjUz13qWQIlAAAoDIpV4EyT5UUpZ3STmen15N3JMl5a/Zowse/uUv+jbjmxFKVVBIoAQBAZVL+AmW9Dup/xxVqHDYmubV9bD9seV4byViw6u/5D7ZQo6OquWuiQ6AEAACVSWkDZeI65ezaoZw97nz15rqp//5h0jz97oaYhklj92f3CwAAgNiLf6DMWac54+5Rv/5PaN7m0LoVemX0JM37puApFa108u/LfnSXYsvul57fAAAAsRffQBkIjpP+8oRmfZGtXFuukqLUGinOVbkbV+iNUX/WJM95ut9bvsWdi6SaLu9xhj6Z2EEf9QyuqZ9+oqY9eq5+mNwhOI07W9MuOTR4ZQRF3z8AAABKI46BMlsLnpukFdaTu0o9deg3QmOeHaMRo8Zo/Ij+6tDAgmWOVjw/RYvcTLlo7U/BmTBtOp6meU+10vgLD1f9YB51dG53jM6pvkPzFmRo8qKf9WNKNXW4uImGHuVuEKaw+wcAAEDpxS9Qrpur976xmepqfmN/XXFKqvKyYGpjXTH4drWuEZjfu0rvvZ/hrF67qWAVeMjvT62p+rm/aPLnBausP1/wpTrftVTXvLRG973wiZ775jcpECp/38zdIExh9w8AAIDSi1ugzFqzRtk2U72Z2p0Z4YzbVRrrgnbBHtRZ337rbJv1i1Mxvp/xoz/USYM/0X0/73XXBH20NFOfu/OmZoo9nb3auT24HK6w+wcAAEDpxS1Q5u51w1vqETosOLe/A90yy19z5LfssH7HM3TT8YGns+UnTVnkrgQAAEDcxS1Q1q51RHAm81t9uys4G27TRndQyrTasmHHax/qaSBZAh2uPFPzrjxch23/WeNf/Uzz3PXhSnv/AAAAKFzcAmXKGWeqqXPvq/TG1GXKLlhbrZyVk/TK8uB802bNncuT6kSoGi9SNfXsc7YmdzxMv/vxR933yCcautK9KoKS3z8AAACKE7dAqYNb6orOwXNo5yyfogfuf0LT5y/Tsk/m6Y1xw3TvxBXBau7aHXTRmcGSw9Yn1XQuo1W/x2kaemY17fzyG3W+9zNNLmYIy5LePwAAAIoXv0AZkHZRf/VKD54OJ/endVrw+hRNmfyG5n2RGRyXMrWlbhp8hRq6j+KiFm41eVQO133NDtXBuTv0+dYauu3mphrvTve1cTcJU7L7BwAAQDTiGiiDQwY9okdu7aLmDarnDRuUUqOeml/SS488cpNaek6/aOfa/mPLQgaR3M+hOuqQwEVKNbVpnabLPVPnk4JbeNn9lvRc3gAAACjeATt37oztibN9stMjth+2PKbn8z6wygGa/2CLEgdKO0F67drBoY0AAAAqOss+devWdZeiF+cSypKz0Df8qhPcpdiw+6N0EgAAID6SLlCaq9qkaXCX49wlf+x+7P4AAAAQH0kZKM0dneppxDUnOtXVpWG3s9vb/QAAACB+kjZQGitZtLaP0XfUCbLt7XaUTAIAAMRf0nXKKYx11nlv+RYtWvuT1m7Kcc7LbR13rCTSzoBjg5bbOJM2NFCs2kvSKQcAAFQmpe2UU24CZVkgUAIAgMqkwvTyBgAAQPlCoAQAAIAvBEoAAAD4QqAEAACALwRKAAAA+EKgBAAAgC8ESgAAAPhCoAQAAIAvBEoAAAD4QqAEAACALwRKAAAA+FKlfp+FCk0AAABASVFCCQAAAF8IlAAAAPCFQAkAAABfCJQAAADwhUAJAAAAXwiUAAAA8IVACQAAAF8IlAAAAPCFQAkAAABfCJQAAADwhUAJAAAAXwiUAAAA8IVACQAAAF8IlAAAAPCFQAkAAABfCJQAAADwhUAJAAAAX8omUG5Zoml/7qVeYxZoy2/uOgAAAJRLZRIoV864QQ/9bYEWPNtLZ1/UV5OXbnGvAQAAQHlT9lXe6z/QiOvPVvdHZuubbHcdAAAAyo0yDZQXPjZDLw26UMcG5ldOHaiLOt2gEe98I3IlAABA+VG2JZRVj9VZN4/V/I8nqU/6EU7byskDLtJl/SdrCbXgAAAA5ULZV3mbI9qp/8tz9N7onjorkCu/nzNCN5zdXn1fWElpJQAAQJJLjkDpSNXxF9+jl+a8pb90skrw7/XByO7qdP0IzV5LrAQAAEhWSRQoXalNdM3T8/Xxy/fowgbSlqWTNfCSTrrhsQ/0PUMMAQAAJJ3kC5SuI9J7auzr72nUjWfpCG3Rkhf7qj1DDAEAACSdpA2UjtTjdcl9L2nO7FG65vTAsjvEUPv7XmeIIQAAgCSR3IHSlXrSJfrLqx/nDTH0/Zv3M8QQAABAkigXgdJx0BERhxjq1Gc8QwwBAACUofITKEPChhja8o+n3SGGlnBecAAAgDJQ/gKlI9IQQzfo7KsfYoghAACABCungdIVNsSQ/jMtOMTQa98ErwcAAEDcle9A6bIhhh59rL+aOUtbtGTrL84cAAAA4q9MAmWzG+frpQe66tgD3RV+ZH+j2Y/doE5XP62VttzgQt3TppFzFQAAAOLvgKNumrvPndeG8ee4c+XDlqXjNeTup7XA6eV9hM668UE9akMLHeRc7VtWVpZq167tLgEAAFRsln3q1q3rLkUv7oFyy9Jpeu61WVowZ6W+17Fq1qmdulx1m66xoX9K6Nsfd+i95Vu0ePUGrfwmW7/sre6sP1B7dOJxh6vL6bV1UYsj1Oioas56vwiUAACgMknCQPm9FjwyQL2mOhXR+2l23SSNfqCdM1B5cSxIPv3uBv192Y/umqL9seVR6t+5vu9gSaAEAACVSWkDZQzbUO7S6rlLAjHSnZ8YCpPH6sJBY/XS3+dr/t9f0lj3bDcrp/bSgImrA1ua77Vkbmi+oNc+ylT7YcujDpPGtrXb2G0BAAAQXzEKlLu08tnrddkdN6j74Nn6PnOBpj1pYbKJ+rz8lsbefKHOOuVYHXvKWbrw5rF66+U+gWsCofLJaVqQ+b1mD+6uG+64TNc/u7JAqBw3Z4PumfaV9uzNK0SNmt3Gbmv3AQAAgPiJUaA8WKe0OTd45pq3B6r7FcP0uq3u1FPXpqc6W3ilpl+rnp1s7nUNu6K7Br5tvWqa6dw2pwTuKchKF5+Ytd5dKj27D0oqAQAA4idmVd4Hn95Hk164R+0sVG5xT659aLa+XrpES/abvlb2ocFNgts2U/+/vaw+pwfjpLWZHPLqWmc+Foa89rVznwAAAIi9mHfK+ea17rpoaOSOOIVpNvQ9zbjqeHdJ6jdlTYnaTEbDOuqMuamxuxQdOuUAAIDKJAk65QT9srVkYdKs9JzZxkoSYx0mjd0npZQAAACxF/NAGXLh6I+1Zs2aIqePR1/obp3PxpmMVv30E/XGE+frh0eti0/xSnLfAAAAiE6MAuVKjW/cWI0DU/cx7qqSGNPduW3jxuP1wVc/uyuLcGoDTf5LW310awO1OSL6p7A4mvsGAABAicSthLK0Nmz81Z0rwjG1deZRe/T5P7eoJIMCrYnmvgEAAFAiMQqUzdTzk0/0SWCadGtwTXbOzuBMNG6d5Nz2k0966udfct2VRfjgU/3+jo/VeeruiIOhFyYrmvsGAABAicSshPLg1FSlBqZTTwq2i1yyYrWynbnC7NIXKz9w5i486VTntqmpoVEoAQAAUF7EvMr7iJPOUjObefOvev2/zqrI/jtNz021mWY666QjnFWm9qEp7lzsxfO+AQAAKqvYBsptS/T0Aw8pOHDQSo148CF98D9noaD/faCHHhyRt91DNw3UbHe7xnVrBGfiIJ73DQAAUFnFLlBamLz1Bo3/T2D+9K7q2jZw+Z9p6nt+e/V9drYW/Ge1Vv9ngWY/21ftz++rabZd28B2pwcut8zWwLse0oJAqGx14mGBFfERz/sGAACorGIUKLP1wZMD3DDZRy9NfFSPjp6h/ulWlf29PhgzUL2uvEyXXdlLA8d8EFgjHZHeXzNGB7ab+JL6WKgMhM8hEz5Q2xb51d+xdlEc7xsAAKCyilGgTNWF9z6ve660MNlfZ9WyVc3U5+U5em/cPbrm/OMVjHJH6Pjzr9E9497TnJf7qFlqYFWts9TfQuWV9+j5ey/UaUdVc06TGGt2n40C9w0AAIDYivm5vGPBTpHYfthy7dmb99B8ObDKAZr/YIsSB0rO5Q0AACqTpDmXdyxY8Bt+1Qnukn92X5ROAgAAxEdSBkpzVZs0De7SwF0qPbsPuy8AAADER9IGSnNHp/oacc2JTpV1Sdlt7LZ2HwAAAIifpA6UxkoXrf1jSTrq2LZ2G0omAQAA4i8pO+UUxjrrvLd8ixZ/9bPWbPw179zcdgYcG7Tcxpm0oYFi1V6STjkAAKAyKW2nnHIVKBONQAkAACqTCtXLGwAAAOUHgRIAAAC+ECgBAADgC4ESAAAAvhAoAQAA4AuBEgAAAL4QKAEAAOALgRIAAAC+ECgBAADgC4ESAAAAvhAoAQAA4MsBO3fuzDuXNwriXN4AAKAy4VzeAAAAKBMESgAAAPhCoAQAAIAvBEoAAAD4QqAEAACALwRKAAAA+EKgBAAAgC8ESgAAAPhCoAQAAIAvBEoAAAD4QqAEAACALwRKAAAA+EKgBAAAgC8ESgAAAPhCoAQAAIAvBEoAAAD4QqAEAACALwfs3LlznzuffHJWaerjz2rRZne5OFXqqcPd/XXF8dXdFf5kZWWpdu3a7hIAAEDFZtmnbt267lL0kreEsqRh0uzN0Lwnn9Yb3+S4KwAAABBvSVtCuerFPnp2qVS7fX8NvrCOu7YYn03VPdNWBWJyS93+7E1q6q4uLUooAQBAZVLhSihzfwteplQ/TKmpqdFNh6QEb7Q3V7nBOQAAAMQZnXIAAADgC4ESAAAAvsQ8UOb+mq3s7CinHCqmAQAAyruYdsrJfG+4hs3OcJeiUV3Nb31YvZrtP8zPihf6aNJyKe2SB/XgRWnu2mKsnKQ+E1cEZpqr1/hegf/9oVMOAACoTMq8U07Jw6TJ0YrnGeYHAACgPItRCeUKTeozKfC/1PzW8erVLLi2OJnvDQuE0EypRS+Nv7lgeSIllAAAAIlV4YYNAgAAQPlAoAQAAIAvBEoAAAD4krRtKNe9NkBPfJij6vWaqmnd/XuBR7TlGy37Jks6spOGPNRF9dzVpUUbSgAAUJlUuDaUDa96WL1aVFdOxiotW7osuskJk611+73+wyQAAACik8RV3tXV/OZAqGyVptSaqdFNDdoFwuR1ahplgSYAAAD8S9oq72RAlTcAAKhMGDYIAAAAZYJACQAAAF8IlAAAAPAl5m0oU2qkqlpKcG2xdmQre1fgMqW6UmscFFxXrNpqefMduuL4+Pe8oQ0lAACoTErbhjLmgTIhqtRW69uG6LpT4xsqCZQAAKAySZpA2fC8m3Ruw+Da4mR/+obeWJkduFE73XReI3dtcb7VvyYv0DpVV7uBo9XjeHd1HBAoAQBAZZI0gTL+wwaV7m+VBoESAABUJqUNlHTKAQAAgC8ESgAAAPhCoAQAAIAvBEoAAAD4QqAEAACALwRKAAAA+EKgBAAAgC8ESgAAAPhCoAQAAIAvMQqUKUpx7yl3e7ays6Obfs7JdW+0I+L1kacdcm+V9zcBAABQdmJ06kUp55s39PST85Sx110RZ/UueVBDLkpzl+KDUy8CAIDKpMxPvVj9+CvU/+4OqpeAUsNEhEkAAABEJ2YllBURJZQAAKAyKfMSSgAAAFROBEoAAAD4QqAEAACALwRKAAAA+EKgBAAAgC8ESgAAAPhCoAQAAIAvBEoAAAD4QqAEAACALwRKAAAA+EKgBAAAgC8ESgAAAPhCoAQAAIAvBEoAAAD4QqAEAACALwRKAAAA+EKgBAAAgC8ESgAAAPhCoAQAAIAvBEoAAAD4QqAEAACALwRKAAAA+EKgBAAAgC8ESgAAAPhCoAQAAIAvBEoAAAD4QqAEAACALwRKAAAA+EKgBAAAgC8ESgAAAPhCoAQAAIAvBEoAAAD4QqAEAACALwRKAAAA+EKgBAAAgC8ESgAAAPhCoAQAAIAvBEoAAAD4csDOnTv3ufO+5Xzzhsa9sExZ7nIiVT/mIt16WzulxTAiZ2VlqXbt2u4SAABAxWbZp27duu5S9GIXKDfP0fC/zFKGu1gWqrcdrNFXNXSX/CNQAgCAyqTsA2XmHA0bNkuZqq56pzVVnWru+gTY/PUyrbNi0Ra9NP7m5sGVMUCgBAAAlUkSBco0dXnwQXVKc9cnwIoX+mjS8sAMgRIAAKDUShso6ZQDAAAAXwiUAAAA8IVACQAAAF8IlAAAAPCFQAkAAABfCJQAAADwhUAJAAAAXwiUAAAA8KVCBMqUg9wZAAAAJFyFCJRNrx+h/pc0VnV3GQAAAIlTLk69mPvTOq1Z/qk+ycjUpjUbpGNOVp269XRm85Zq3DBVKaHtcnOVkhJa8o9TLwIAgMqkQp7LO3fzMk2f8IoWbcx110SQ2lDtuv5JPc6MffAjUAIAgMqkwp3LO2vxJD0wdEp+mDy4tho2a6mW6TY1Vb1UtyQye50WTH5A90xcpKy9wVUAAABInKQsocz88GmNfG2NcmwhtbG63NhTHU7Jr9oOyf1pjea9PFmz/pvtLFdv0UsP39w8Zm0pKaEEAACVScUpodw4R5NnBMNkSoMuGvJIf3WKECZNSs3G6tTvEQ25qJ6znLN8kp5+P9OZBwAAQGIkWaDM1oJXZynDqq5rtNbtgzupXpF9bHKUsS5baZf0103NguWSGbPf0LJdziwAAAASILkCZebH+tc3NlNdrW+6To2LfHS5gfD4tIY/MUxTlqeoZfdA+LTVe1dp3kfBKnAAAADEX1IFyqyVK+RUWNdsrTanOqsKlfneSA1/L0P1Lhqkm1qkBG7TTue6t8lYsUJESgAAgMRIqkC54fuM4MzxjdQwOCdlL9Oke4ZrzkZ3OSDrn09o+OwM1e44REMuqee2r0xRo0ZuT6BNG7QpOAcAAIA4i0OgzFHG58u07JMopy8yFT7KZFrdOu5cQLU6SjssQ7MezQ+Vtdtdr071AsFy4Rta4AmaaUe6t8vZEewhDgAAgLiLw7BBJVSzgwY/doVTIrnihT6atDwwk367xt/Y1LnakRsIlCMDgfJ/9dTp3kHqYj11Quu2NlaPu/urXV2rBh+mYbPtETRXr/G9Av/7w7BBAACgMin7YYPSOunWK0txPu2fsrTZHZC8ztFueFufUTCYptRWvaMC97w3S5lZbnlmSj116X+72h2Xpto1g6s2bXRvVa+e6gfnAAAAEGexK6EsrcxFWrSjtVpbEeV/p2rAmEXKKTA4eo5WvDhMk5b+pua3Pqxe7vBA+9m7SlMHPatFOVLtC4bokcuDY1P6QQklAACoTMrxwOY/a8UKtzPOKeeqtZPfMjXrdQuWAevmaPonxYTJgMx333DCpAJh9OzW/sMkAAAAopOgEsoMLXhxnr51lwrYsUmrvq6nm0Zep6aBeJu7cpLunbjCCZP1LhqiQZcEwmFurlJSCh/hPCdwmz+7t6mefrsev7FpxDPrlBQllAAAoDIpbQllggLlCk3qMynwf+HSLnpQD15iddw5WvHCnzVpuVPcqNRTuqjnjZ3UONVZLGhvtta8P1mTZrvn/a7RUrc/epOaHuxc6xuBEgAAVCZJHiiLKKHMU0+tr+qgxhYG92Zp0cThmvpZMFTaGJOpxzdV8yZN1ejIg6RdWfp25Qp9sjZDOaExh1JbqteDN6l5iXsFFY5ACQAAKpMkD5SlkauM+c9q3JtrlO32Ao8sRWmtrtUdV7VU7VjUc3sQKAEAQGVSAQOlKzdb65bO1XsfLdO3G7PdEskUVa+ZpkZnnquLzj9TDWvGOEm6CJQAAKAyqbiBsgwRKAEAQGVS2kCZVOfyBgAAQPlDoAQAAIAvBEoAAAD4QqAEAACALwRKAAAA+EKgBAAAgC8ESgAAAPhCoAQAAIAvBEoAAAD4QqAEAACALwRKAAAA+EKgBAAAgC8ESgAAAPhCoAQAAIAvBEoAAAD4QqAEAACALwRKAAAA+EKgBAAAgC8ESgAAAPhCoAQAAIAvBEoAAAD4QqAEAACALwRKAAAA+EKgBAAAgC8ESgAAAPhCoAQAAIAvBEoAAAD4QqAEAACALwRKAAAA+EKgBAAAgC8ESgAAAPhCoAQAAIAvBEoAAAD4QqAEAACALwRKAAAA+EKgBAAAgC8ESgAAAPhywM6dO/e58wmXmZmp5cuX65dfflFOTo5+/fVXZ32NGjVUvXp1paam6owzzlBaWpqzPtGysrJUu3ZtdwkAAKBis+xTt25ddyl6CQ+UFhoXL16sZcuWKSMjw11btAYNGqh169Y688wzVa1aNXdt/BEoAQBAZZL0gdKC5Ny5c7VgwQIF/qa7tmQsTJ533nlq3769U4IZbwRKAABQmSR1oFy4cKFmzpyp3Nxcd40/VatW1dVXX6309HR3TXwQKAEAQGVS2kAZ1045+/btc4Lkq6++GrMwaXbv3q0XX3xRs2fPdtcAAACgrMQ1UE6YMEH/+Mc/3KXonXDCCerfv7+uuOIKHXrooe7a/b333nuaMmWKuwQAAICyELcqbyuZLGmYtABZv359Z/6kk05yLt9991298847znxhLrnkEl100UXuUuxQ5Q0AACqTpKryth7c0YZJe9B33XWXMzVq1MgJkqEwaXbt2uWUWBbFqr5XrVrlLgEAACCRYh4oLdm+8sor7lLxNm7cqK+//toJkRYoQzZv3qzPPvtMl19+uQ466CB3beEmT56s7du3u0sAAABIlJgHyrfeeqvEHXCshPGJJ55whhRau3atc/sjjzxSp512mjP/22+/uVsWbseOHU6bSgAAACRWTAPld99955z5pjTWrVun6dOn66mnnnJKJ0NSUlI0YMAANWnSxF1TuH/+858FbgsAAID4i2mgtA408XLIIYe4c0V7//333TkAAAAkQswCpZ0JJ54dY6wt5dFHH+0uFW7lypXuHAAAABIhZoEymjBppYzt2rXTxRdfrE6dOpWoW/phhx3m9ASvUaOGuyaynJwcffnll+4SAAAA4i1mgdJ6ZBencePG6tGjhzp37qwuXbroz3/+s6655hr32uJZqGzbtq27VLjPP//cnQMAAEC8xSxQbtu2zZ0rnHXYmTVrlrsU1KZNG910003uUvG8QwsVZsuWLe4cAAAA4i1mgTKaMSDT0tLUsGFDdylfy5YtI66PJJohhH766Sd3DgAAAPGW0ED5888/66ijjnKXCrKSymhs2LDBnSvc1q1b3TkAAADEW8wCpQ0sXhzbZuzYsU6P8HC///3v3bmi2Wkdi8MZcwAAABInZoGyuN7XIXb2m0jbHnrooU6VeFFs4HI7tWNxoh2zEgAAAP7FLFBGG+J27drlzu2vTp067tz+srOz9fbbb7tLRUtNTXXnAAAAEG8xC5TRDDpuFi1apGeeeUa7d+921+QLhdJ9+/Y5lyF79uzR+PHjiwyjXsWVdAIAACB2YhYo69Wr584VzwYeHzVq1H5tHUOB8oADDnAuQ1599VXnPOHRatCggTsHAACAeItZoIy2U01IRkaGhg8frh9++MFdE2xHGe4f//iHU6pZEqeffro7BwAAgHiLWaC0UsFatWq5S9GxwdBHjBihb775xlkOb/v45ptvaubMme5SdI499tioq98BAADgX8wCpTnrrLPcuejZUEJW/W1n0Tn44IOdddaG8sUXX9TcuXOd5ZJIT0935wAAAJAIMQ2U5557bl4oLKkXXnhBH3/8sTP/xhtvaOnSpc58SViVebQDpAMAACA2Yhoorcr64osvdpeic8wxxzhjU7Zq1cqpqv7DH/6gmjVrOuvq1q3rbhWdrl276ne/+527BAAAgEQ4YOfOnQXH6ImBhx9+WBs3bnSX9mc9wlu0aOFMRxxxhLs2Muu08+mnn+rf//53kfd50kkn6a677nKXYsMGUa9du7a7BAAAULFZ9ilpgZ6JS6C0HtyjR4/eb9xIC5BWLX7CCSe4a0pmzZo1Tq/vzz77zF0TZFXd99xzT8zDH4ESAABUJkkVKI2NGzlmzBin082RRx6pP/3pTzEbH9J6hU+ZMsV50lbNPmDAAB111FHutbFDoAQAAJVJ0gVKY9XVNoaktatMSUlx18aGnWnnnXfeUbt27eIW+giUAACgMknKQFneESgBAEBlUtpAGdNe3gAAAKh8CJQAAADwhUAJAAAAXwiUAAAA8IVACQAAAF8IlAAAAPCFQAkAAABfCJQAAADwhUAJAAAAXwiUAAAA8IVACQAAAF8IlAAAAPCFQAkAAABfDti5c+c+dx5hsrKy3DkAAICKrXbt2k72qVu3rrsmegTKItiLai8uAABAZVDaQEmVNwAAAHwhUAIAAMAXAiUAAAB8IVACAADAFwIlAAAAfCFQAgAAwBcCJQAAAHwhUAIAAMAXAiUAAAB84Uw5RSjLM+WsntRefWfYXLoGTh+uTkc6qx3510ndnpmv3k2D89I2zbmvq0YtC8y2HKjXH+ukWuHrjfe6zXM0pMcoLXWuKEzYYyjkNumDXtfwjirkMbg8tw1uX+BaAABQhjhTTgVTp366O7dUC5dvc+fNan3ohkkzc9Fqd85s0no3NKa3Oys/yG1eooWhMGmWLdSSze58iVgwba/2xQZQAABQmRAofdqevd2di962zd6AGFmtFucoL1Ju2OTOBaz6UDPdWce69YGY5/JcV//Y/JK/bcsXBgNgy3T3Pj0h9chOGj5/vuY70+sa2DK42ildzFtvpZNhpZzdx7rXudMz3dwrAABAZUOg9GH3ygm65rJ+mrAy+lCZuWCUBvT4i2Z+vdtdU4gjz9I5oXDnCY3bvt/gXKYHwqHDU9oYuk7qpraeavAlC4LlientBuna7s6sli5Ykh9Eo7FqRsEw2auJu+Bq2pvqawAAKikCpQ9Vm/XWxLvT9PaA6EKlhckhD61Wk7/cr24nVHXXFqaWGjR0Z5etV7CMMj8c1m8XKsFcqvU/ODPatMGtiG7ZQHWCcwWqu63UMq8qvYTV3qsXhco+0zXwsrAwCQAAKjUCpU9pnYdrShShMj9MDtfAdmnu2qI1aR2qRp6pD1cFLvLCYboatMgvwdzwvZU1btP6dcFlb/vJ1W+F2jsGSy3zq9LD22YWJf++A7FUDTwdhIq0bJS6tm+v9t6J9pcAAFQ4BMoYcELloMJD5bZlY0ocJh1HN3DDnxsaf1gfDGMtz9FZR9bSWe3caGjV156weU6LvDiZ34Gne1s55YqeqvQSV3sDAABEQKCMkbSOkUOlhckB960seZg03vC3YVN+tXPDBk4JZK1j6weXrUo8FDa9JYjeDjwz+rqlhJ6ONaXq7b1B66O9TYGOPe40fWBeSAYAABUDgTKGnFB5X33NcUPl9pUTnDDZ7LHRJQ+TDk87ynUf6kO32rlba7cNY9O2ClaKz9Qr09wOOaGSyID8do+FibbaO7801G4z6i3vUEUAAKCyI1DGWFqHoZrohMpLdemAZU6Y7Ney9L2f89pRLpupmU7JorcHdx01CJVgLguWT6bXD3XH8VR371dSmD880NKRMwJbFq9Wx2vd8BpgpZ2Twm61aoKGvE8FOgAAlRGBMg4sVL44cZRGTfQXJh15pZAubw/uAiWHxtN+0lPdXWCQc4f3dm6Hn2I1UW9vdXVeFbo73VlcaSgAAKioCJRxUuuE5mp+gs8w6cgvhTTh4TCvHaUj1H5ym+ZMy4uTnk46+by3K3i2nSK4g6CPdceyLCjy3wEAABUf5/IuQlmeyxsAACDROJc3AAAAygSBEgAAAL4QKAEAAOALgRIAAAC+ECgBAADgC4ESAAAAviTNsEGDBw/WL7/84szXrFlTjz32mDNflhg2CAAAVCblftig3/3ud+5cwXkAAAAkN6q8AQAA4EtSVHnv27dP//73v92loDPPPNOdKztUeQMAgMqktFXeCQmUL774Yl5g3LNnj/r27auxY8fqwAMPdNZ17txZ//rXv/Trr786y4cddpgeffRRZ74sESgBAEBlkvRtKC1I2uTlXXfwwQfnLVetWtVZV5h58+bphRde0O7du901AAAAKCvlrg3lrl279N5772n58uVOqAQAAEDZSkiV96effqrc3Fx3SWratKlWrVrlLkmHH364tm7d6i4Fpaenu3MFffLJJ5o8ebK7JN18881q0aKFuxRbVHkDAIDKJKnaUPbp0yev2vr4449XamqqVqxY4SxbNbW1oZw4caKzbDp27Oi0oQw8Fmf5kEMOUdu2bZ2SyJB+/fo59zV79uwC6xs3bqyuXbsqJydHVapUUb169Zzq81ggUAIAgMokqdpQHnTQQU5w9LZxLGw5tM5CYGg5FEbDtzHVqlVz54LWrFnjdOB56qmnNHr0aA0aNEhff/21ey0AAADirdy1oTzppJPcucisan3jxo3uEgAAAOItLlXeixYtcucCf+CAA5wSS28byt///vf6/PPP3SU51cpWxOp1xBFHaMuWLe5S8DaHHnqoUyJp1eU7duxwryno2GOP1f333+8u+UOVNwAAqEzKvA3lpEmT8tpJlpUmTZrohhtucNpsxgKBEgAAVCZlHiitI05Z6NSpkxo0aOB0xrHe4rFEoAQAAJVJaQNlzNpQxqpUsCROPPFEdenSRaeffnrMwyQAAACiE7NAaUP9JNof/vAHdw4AAABlJWaB8sgjj3TnEsOquU899VR3CQAAAGUlZoGyuOF8Yq1bt27uHAAAAMpSzALlySef7M7FX+vWrZ2z5gAAAKDsxSxQWo+go48+2l2Kn+OOO049evRwlwAAAFDWYhYoTYcOHdy5+LBBy++44w6lpKS4awAAAFDWYhoo27Rp43SWiYdGjRrprrvuUo0aNdw1AAAASAYxDZTm1ltvVa1atdwl/yxAXn311Ro4cKCqV6/urgUAAECyiMu5vH/55Re99tprvk7FeNhhh+mCCy5wOuBUq1bNXZtYnCkHAABUJmV+6sVIMjIytHDhQn3++ef66aef3LWFsyfQuHFjZwiiZs2auWvLDoESAABUJkkZKL1+/fVXbdu2TT///LO2bt2q7du3O6drtMBWs2ZNpaWluVsmDwIlAACoTJI+UJZHBEoAAFCZlDZQxrxTDgAAACoXAiUAAAB8IVACAADAFwIlAAAAfCFQAgAAwBcCJQAAAHwhUAIAAMAXAiUAAAB8IVACAADAFwIlAAAAfCFQAgAAwBcCJQAAAHwhUAIAAMAXAiUAAAB8IVACAADAFwIlAAAAfCFQAgAAwBcCJQAAAHwhUAIAAMAXAiUAAAB8IVACAADAFwIlAAAAfCFQAgAAwBcCJQAAAHwhUAIAAMAXAiUAAAB8IVACAADAFwIlAAAAfCFQAgAAwBcCJQAAAHwhUAIAAMAXAiUAAAB8IVACAADAFwIlAAAAfCFQAgAAwBcCJQAAAHwhUAIAAMAXAiUAAAB8IVACAADAFwIlAAAAfCFQAgAAwBcCJQAAAHwhUAIAAMAXAiUAAAB8IVACAADAFwIlAAAAfCFQAgAAwBcCJQAAAHwhUAIAAMAXAiUAAAB8IVACAADAFwIlAAAAfCFQAgAAwBcCJQAAAHwhUAIAAMAXAiUAAAB8IVACAADAFwIlAAAAfCFQAgAAwBcCJQAAAHwhUAIAAMAXAiUAAAB8IVACAADAFwIlAAAAfCFQAgAAwBcCJQAAAHwhUAIAAMAXAiUAAAB8IVACAADAFwIlAAAAfCFQAgAAwBcCJQAAAHwhUAIAAMAH6f8D+caPqEBFD3AAAAAASUVORK5CYII=;" vertex="1" parent="1">
          <mxGeometry width="660" height="681" as="geometry" />
        </mxCell>
        <mxCell id="hPZNeYlknb2ak6IFQxPp-4" style="rounded=0;orthogonalLoop=1;jettySize=auto;html=1;entryX=0.5;entryY=1;entryDx=0;entryDy=0;strokeWidth=4;strokeColor=#EA6B66;" edge="1" parent="1" source="hPZNeYlknb2ak6IFQxPp-2" target="hPZNeYlknb2ak6IFQxPp-3">
          <mxGeometry relative="1" as="geometry" />
        </mxCell>
        <mxCell id="hPZNeYlknb2ak6IFQxPp-2" value="&lt;h1 style=&quot;margin-top: 0px;&quot;&gt;&lt;font color=&quot;#ea6b66&quot; style=&quot;font-size: 36px;&quot;&gt;Extensions (1)&lt;/font&gt;&lt;/h1&gt;" style="text;html=1;whiteSpace=wrap;overflow=hidden;rounded=0;" vertex="1" parent="1">
          <mxGeometry x="80" y="350" width="340" height="50" as="geometry" />
        </mxCell>
        <mxCell id="hPZNeYlknb2ak6IFQxPp-3" value="&lt;h1 style=&quot;margin-top: 0px;&quot;&gt;&lt;font color=&quot;#ea6b66&quot; style=&quot;font-size: 36px;&quot;&gt;(2)&lt;/font&gt;&lt;/h1&gt;" style="text;html=1;whiteSpace=wrap;overflow=hidden;rounded=0;" vertex="1" parent="1">
          <mxGeometry x="307" y="110" width="46" height="50" as="geometry" />
        </mxCell>
      </root>
    </mxGraphModel>
  </diagram>
</mxfile>
